<?xml version="1.0" encoding="UTF-8"?>
<!DOCTYPE svg PUBLIC "-//W3C//DTD SVG 1.1//EN" "http://www.w3.org/Graphics/SVG/1.1/DTD/svg11.dtd">
<!-- Creator: CorelDRAW -->
<svg xmlns="http://www.w3.org/2000/svg" xml:space="preserve" width="3.08321in" height="3.0832in" version="1.1" style="shape-rendering:geometricPrecision; text-rendering:geometricPrecision; image-rendering:optimizeQuality; fill-rule:evenodd; clip-rule:evenodd"
viewBox="0 0 3172.1 3172.09"
 xmlns:xlink="http://www.w3.org/1999/xlink"
 xmlns:xodm="http://www.corel.com/coreldraw/odm/2003">
 <defs>
  <style type="text/css">
   <![CDATA[
    .fil0 {fill:#5C34A3}
    .fil1 {fill:#FEFEFE}
    .fil2 {fill:#FEFEFE;fill-rule:nonzero}
   ]]>
  </style>
 </defs>
 <g id="Layer_x0020_1">
  <metadata id="CorelCorpID_0Corel-Layer"/>
  <g id="_2403589797360">
   <circle class="fil0" cx="1586.05" cy="1586.05" r="1586.05"/>
   <path class="fil1" d="M738.69 2882c178.91,120.96 336.92,174.22 544.4,222.89 59.21,13.89 165.44,28.27 229.28,27.52 0,-66.97 4.65,-581.69 -2.74,-600.22 -83.41,-6.72 -158.47,-22.28 -230.56,-47.04 -35.22,-12.09 -66.98,-25.28 -97.98,-39.58 -32.71,-15.09 -60.28,-33.63 -90.74,-48.37 -13.5,10.1 -33.82,43.77 -44.34,58.18 -16.94,23.2 -29.78,40.87 -44.39,60.96 -27.21,37.4 -59.84,81.43 -88.53,122.09 -20.16,28.57 -171.31,230.6 -174.4,243.56z"/>
   <path class="fil1" d="M90.68 1991.82c18.45,-1.37 435.17,-138.06 495.77,-158.75 21.67,-7.4 51.37,-14.95 72.37,-23.6 2.41,-9 -12.44,-88.01 -15.11,-106.65 -9.66,-67.39 -10.87,-163.34 -0.62,-230.06l17.87 -107.28 -14.5 -7.36c-6.63,-2.21 -11.17,-3.37 -18.02,-5.66l-463.34 -150.66c-16.11,-5.43 -58.56,-21.12 -73.72,-21.65 -12.95,26.49 -33.45,152.45 -39.08,187.71 -32.13,201.44 -10.86,435.13 38.38,623.96z"/>
   <path class="fil1" d="M2510.83 1363.1c3.39,50.01 24.85,100.85 24.85,206.98 0,62.94 -3,80.43 -7.87,141.57 -1.74,21.86 -17.93,83.68 -15.51,97.28 44.9,17.12 92.58,29.96 140.7,46.14l427.5 137.6c43.65,-179.65 54.58,-255.1 54.58,-440.63 0,-120.46 -25.02,-266.46 -54.04,-372.13 -35.28,4.01 -491.68,162.1 -570.21,183.2z"/>
   <path class="fil1" d="M738.43 291.27l260.87 361.7c13.8,18.36 79.95,113.29 91.06,120.94l91.82 -48.15c30.78,-14.65 65.53,-28.13 98.14,-39.72 93.32,-33.14 214.71,-42.52 231,-48.74l1.05 -596.62c-119.69,-5.98 -318.74,42.25 -432.27,80.82 -70.57,23.97 -305.67,126.92 -341.67,169.77z"/>
   <path class="fil1" d="M139.87 1037.5l139.94 46.42c52.71,16.54 409.36,136.55 428.41,136.64 12.74,-22.34 29.22,-65.88 50.4,-102.36 18.6,-32.05 38.8,-62.04 60.56,-93.23 23.2,-33.25 77.16,-96.01 108.03,-123.42 6.78,-6.02 35.02,-31.01 39.87,-38.57 -4.35,-12.45 -73.79,-104.22 -86.4,-121.39 -28.52,-38.83 -58.34,-80.2 -86.92,-120.55l-175.81 -241.33c-21.24,6.2 -133.53,117.38 -148.9,132.77 -86.21,86.28 -179.35,217.29 -240.76,327.58 -14.96,26.86 -89.14,172.35 -88.41,197.45z"/>
   <path class="fil1" d="M1661.06 3132.74c42.5,3.03 179.98,-17.38 224.69,-27.07 72.6,-15.74 135.97,-31.8 201.79,-54 78.01,-26.32 282.27,-116.29 345.14,-169.68 -2.32,-12.48 -72.26,-103.64 -85.74,-122.37l-263.62 -362.07 -95.34 49.42c-30.84,14.21 -68.3,29.39 -102.72,40.94 -62.79,21.08 -112.61,30.83 -177.7,39.7 -53.64,7.32 -47.91,-1.77 -47.62,26.17 0.49,48.12 -3.06,551.4 1.12,578.96z"/>
   <path class="fil1" d="M2204.48 2307.28c3.69,13.15 68.87,98.46 85.17,121.56 28.99,41.06 57.05,77.86 88.76,121.79 22.04,30.54 166.12,232.88 177.31,241.22 26.2,-13.05 127.09,-111.15 148.9,-134.07 89.42,-94.02 178.91,-214.08 240.23,-328.32 12.86,-23.95 88.83,-171.71 87.95,-195.49l-567.14 -184.56c-18.51,24.16 -69.13,181.59 -221.08,320.54 -12.66,11.58 -23.78,24.45 -40.09,37.33z"/>
   <path class="fil1" d="M139.13 2135.77c4.42,32.6 68.28,158.74 88.43,194.62 49.17,87.55 106.86,175.27 172.47,251.91 44.47,51.94 91.09,99.72 138.25,144.67 21.46,20.46 50.18,46.1 76.66,64.76 10.54,-5.7 36.05,-44.65 45.08,-57.16 65.1,-90.23 154.04,-217.07 218.88,-301.53 15.77,-20.55 28.9,-40 44.41,-60.88 8.51,-11.48 13.36,-18.51 21.76,-29.71 5.43,-7.24 17.09,-22.44 22.02,-32.15 -5.26,-11.93 -28.01,-28.35 -37.8,-37.49 -62.65,-58.5 -126.91,-142.81 -169.87,-218.16 -20.68,-36.26 -40.32,-84.88 -51.2,-103.87 -14.3,-0.05 -250.58,79.76 -284.15,90.39 -34.63,10.96 -274.13,85.91 -284.93,94.62z"/>
   <path class="fil1" d="M1660.12 638.27c41.8,7.04 82.14,9.07 121.21,17.98 181.82,41.51 289.7,114.75 301.98,117.35l306.16 -419.75c9.47,-13.31 39.26,-50.17 43.67,-62.58 -7,-8.07 -26.62,-18.94 -37.81,-25.98 -13.7,-8.62 -26.75,-16.3 -39.67,-23.7 -27.56,-15.78 -56.7,-30.9 -84.56,-45.08 -117.03,-59.57 -249.39,-102.48 -380.61,-129.73 -51.67,-10.73 -179.03,-31.49 -229.8,-27.17l-0.57 598.65z"/>
   <path class="fil1" d="M2204.11 862.98c10.1,12.06 54.51,49.36 77.59,75.43 54.96,62.09 90.49,107.53 130.99,179.17l52.77 103.6 567.69 -183.18c-1.85,-28.24 -72.33,-166.9 -87.79,-194.92 -32.55,-59.02 -71.21,-119.47 -111.02,-174.42 -50.6,-69.84 -136.87,-167.69 -200.82,-223.58 -22.08,-19.3 -53.31,-50.76 -77.79,-65.72 -10.37,8.3 -164.98,225.22 -176.43,240.96 -25.37,34.85 -57.58,77.14 -87.43,120.04l-87.75 122.63z"/>
   <path class="fil2" d="M948.94 1661.23l-41.85 0 -29.37 -39.58 -65.61 0 0 39.58 -33.66 0 0 -73.24 115.1 0c5.95,0 11.05,-2.13 15.27,-6.35 4.22,-4.22 6.35,-9.33 6.35,-15.27 0,-6.02 -2.13,-11.16 -6.35,-15.38 -4.22,-4.22 -9.32,-6.35 -15.27,-6.35l-115.1 0 0 -33.77 115.1 0.11c7.6,0 14.72,1.47 21.4,4.4 13.62,6.02 23.46,15.86 29.55,29.48 2.94,7.16 4.44,14.35 4.44,21.51 0,7.08 -1.5,14.25 -4.44,21.4 -5.87,13.25 -15.38,22.95 -28.6,29.04l33.04 44.42z"/>
   <polygon id="_1" class="fil2" points="1154.8,1661.23 1116.28,1661.23 1055.93,1553.45 995.5,1661.23 956.98,1661.23 1041.2,1510.86 1070.58,1510.86 "/>
   <polygon id="_2" class="fil2" points="1360.76,1661.23 1327.09,1661.23 1327.09,1562.92 1275.54,1636.49 1248.01,1636.49 1196.61,1562.92 1196.61,1661.23 1162.84,1661.23 1162.84,1510.86 1201.02,1510.86 1261.78,1597.69 1322.57,1510.86 1360.76,1510.86 "/>
   <polygon id="_3" class="fil2" points="1566.5,1661.23 1527.98,1661.23 1467.63,1553.45 1407.2,1661.23 1368.69,1661.23 1452.9,1510.86 1482.28,1510.86 "/>
   <path id="_4" class="fil2" d="M1745.03 1661.23l-170.49 0 0 -33.67 170.49 0 0 33.67zm0 -116.16l-170.49 0 0 -33.67 170.49 0 0 33.67zm-13.77 58.08l-143.07 0 0 -33.67 143.07 0 0 33.67z"/>
   <path id="_5" class="fil2" d="M1877.75 1661.23l-72.62 0c-6.54,0 -12.74,-1.17 -18.62,-3.56 -11.82,-4.74 -20.56,-12.81 -26.25,-24.3 -2.72,-5.65 -4.07,-11.71 -4.07,-18.17l33.77 0c0,2.64 0.77,4.88 2.35,6.72 1.58,1.83 3.56,3.23 5.87,4.15 2.35,0.92 4.66,1.39 6.94,1.39l72.62 0c2.28,0 4.63,-0.48 6.97,-1.39 2.35,-0.92 4.33,-2.31 5.91,-4.15 1.58,-1.84 2.39,-4.07 2.39,-6.72 0,-2.57 -0.81,-4.77 -2.39,-6.61 -1.58,-1.83 -3.56,-3.23 -5.91,-4.18 -2.35,-0.99 -4.7,-1.47 -6.97,-1.47l-72.62 0c-6.54,0 -12.74,-1.14 -18.62,-3.45 -11.82,-4.74 -20.56,-12.82 -26.25,-24.31 -2.72,-5.65 -4.07,-11.71 -4.07,-18.17 0,-6.46 1.36,-12.52 4.07,-18.17 5.69,-11.49 14.43,-19.57 26.25,-24.3 5.88,-2.31 12.08,-3.45 18.62,-3.45l72.62 0c6.57,0 12.78,1.14 18.58,3.45 11.93,4.74 20.71,12.81 26.36,24.3 2.64,5.65 4,11.71 4,18.17l-33.66 0c0,-2.57 -0.81,-4.78 -2.39,-6.61 -1.58,-1.83 -3.56,-3.23 -5.91,-4.18 -2.35,-0.99 -4.7,-1.47 -6.97,-1.47l-72.62 0c-2.28,0 -4.59,0.48 -6.94,1.47 -2.31,0.96 -4.3,2.35 -5.87,4.18 -1.58,1.83 -2.35,4.04 -2.35,6.61 0,2.64 0.77,4.88 2.35,6.68 1.58,1.8 3.56,3.16 5.87,4.15 2.35,0.95 4.66,1.43 6.94,1.43l72.62 0c6.57,0 12.78,1.17 18.58,3.56 11.93,4.74 20.71,12.82 26.36,24.31 2.64,5.65 4,11.67 4,18.06 0,6.46 -1.36,12.52 -4,18.17 -5.65,11.49 -14.43,19.57 -26.36,24.3 -5.8,2.39 -12.01,3.56 -18.58,3.56z"/>
   <polygon id="_6" class="fil2" points="2023.79,1661.23 1990.13,1661.23 1990.13,1544.52 1935.39,1544.52 1935.39,1510.86 2078.46,1510.86 2078.46,1544.52 2023.79,1544.52 "/>
   <polygon id="_7" class="fil2" points="2180.52,1661.23 2146.86,1661.23 2146.86,1544.52 2092.12,1544.52 2092.12,1510.86 2235.19,1510.86 2235.19,1544.52 2180.52,1544.52 "/>
   <polygon id="_8" class="fil2" points="2393.61,1661.23 2355.1,1661.23 2294.74,1553.45 2234.31,1661.23 2195.8,1661.23 2280.02,1510.86 2309.39,1510.86 "/>
  </g>
 </g>
</svg>
